<?xml version="1.0" standalone="no"?>
<!DOCTYPE svg PUBLIC "-//W3C//DTD SVG 20010904//EN"
 "http://www.w3.org/TR/2001/REC-SVG-20010904/DTD/svg10.dtd">
<svg version="1.0" xmlns="http://www.w3.org/2000/svg"
 width="460.000000pt" height="460.000000pt" viewBox="0 0 460.000000 460.000000"
 preserveAspectRatio="xMidYMid meet">
<metadata>
Created by potrace 1.14, written by Peter Selinger 2001-2017
</metadata>
<g transform="translate(0.000000,460.000000) scale(0.100000,-0.100000)"
fill="#000000" stroke="none">
<path d="M1695 4587 c-11 -7 -31 -19 -45 -28 -26 -18 -78 -47 -145 -82 -22
-12 -47 -27 -55 -33 -8 -6 -46 -29 -85 -49 -38 -21 -72 -41 -75 -44 -3 -3 -30
-19 -60 -35 -30 -16 -73 -41 -95 -55 -22 -14 -58 -35 -80 -46 -76 -42 -120
-67 -146 -86 -15 -10 -37 -23 -50 -29 -13 -5 -45 -22 -71 -37 -25 -16 -86 -50
-135 -77 -48 -27 -95 -55 -103 -61 -8 -7 -40 -26 -70 -42 -30 -17 -95 -54
-145 -83 -49 -28 -129 -74 -178 -102 -103 -58 -103 -65 0 -118 37 -19 74 -41
82 -48 7 -7 36 -24 65 -39 28 -14 89 -48 136 -76 123 -72 189 -111 240 -139
95 -53 126 -71 152 -89 14 -11 29 -19 32 -19 3 0 29 -14 58 -31 55 -33 109
-64 143 -83 36 -21 239 -137 275 -158 73 -44 220 -128 360 -208 80 -45 156
-90 170 -99 14 -9 39 -23 55 -31 17 -8 32 -17 35 -20 3 -3 21 -14 40 -24 80
-44 195 -111 200 -116 3 -3 28 -18 55 -32 l50 -26 154 89 c84 49 157 89 162
89 5 0 9 4 9 8 0 5 19 18 42 28 23 10 56 28 73 40 17 11 62 38 101 59 38 20
87 48 109 62 71 44 250 147 255 148 3 0 44 24 92 52 48 29 106 63 129 75 74
42 94 53 147 85 28 18 52 30 52 26 0 -3 10 3 23 14 12 11 41 30 64 42 24 12
83 46 133 76 49 30 90 52 90 49 0 -3 19 8 43 24 23 16 78 48 122 72 44 24 82
46 85 50 3 4 39 25 81 47 42 22 90 49 105 60 16 11 57 35 92 54 82 45 82 51
-8 101 -67 38 -213 121 -231 133 -9 5 -39 22 -67 37 -28 16 -91 52 -141 82
-49 30 -91 52 -94 50 -2 -2 -10 2 -17 11 -7 8 -18 15 -25 15 -8 0 -15 4 -17 8
-1 5 -43 30 -93 57 -49 27 -92 52 -95 55 -3 3 -41 26 -85 50 -44 23 -99 56
-122 71 -23 16 -45 29 -48 29 -4 0 -55 28 -114 63 -58 34 -118 69 -133 76 -16
8 -28 18 -28 23 0 4 -5 8 -10 8 -10 0 -66 30 -208 112 l-47 28 -585 -1 c-434
0 -590 -3 -605 -12z"/>
<path d="M13 3537 c-7 -9 -11 -2475 -4 -2568 0 -9 18 -24 38 -33 21 -8 59 -28
84 -43 25 -16 79 -47 120 -70 41 -23 79 -46 85 -51 6 -6 36 -23 65 -37 30 -15
65 -35 79 -45 14 -9 52 -32 85 -50 111 -61 130 -72 155 -90 14 -9 39 -24 55
-32 17 -8 46 -24 65 -35 172 -101 222 -130 265 -153 28 -15 87 -50 132 -76
119 -71 210 -123 273 -157 30 -17 57 -33 60 -36 3 -3 28 -19 57 -34 l51 -27
288 2 289 3 0 1123 0 1123 -21 17 c-24 20 -43 31 -143 85 -42 22 -78 43 -81
47 -4 6 -115 69 -218 125 -20 11 -38 23 -40 28 -2 4 -8 7 -13 7 -6 0 -47 22
-92 49 -132 79 -269 157 -307 176 -19 10 -37 21 -40 25 -3 4 -41 26 -85 49
-43 24 -90 51 -103 62 -14 10 -28 19 -33 19 -4 0 -56 29 -116 65 -59 36 -112
65 -117 65 -5 0 -23 11 -40 23 -17 13 -69 45 -116 71 -125 69 -165 92 -265
150 -161 94 -229 133 -290 167 -33 18 -62 35 -65 38 -3 3 -15 11 -27 18 -17 9
-23 9 -30 0z"/>
<path d="M4492 3495 c-40 -25 -76 -45 -81 -45 -4 0 -21 -11 -37 -25 -15 -13
-30 -23 -32 -21 -3 4 -54 -25 -167 -94 -22 -14 -42 -25 -45 -25 -3 0 -43 -23
-90 -51 -47 -28 -105 -62 -130 -76 -25 -14 -90 -51 -145 -83 -89 -52 -196
-114 -318 -184 -23 -13 -82 -47 -132 -77 -49 -29 -109 -63 -132 -76 -73 -41
-227 -129 -263 -150 -39 -23 -161 -94 -320 -185 -58 -33 -121 -70 -140 -81
-19 -12 -52 -30 -72 -42 l-38 -20 0 -1130 0 -1130 292 0 293 0 90 54 c49 29
140 81 200 116 61 35 126 74 146 87 19 12 38 23 42 23 4 0 52 27 107 60 55 33
102 60 104 60 3 0 50 27 104 60 55 33 103 60 106 60 4 0 33 17 66 38 32 21 80
49 107 63 26 13 50 27 53 30 3 3 37 23 75 44 39 21 97 56 131 77 34 21 64 38
68 38 3 0 25 12 47 26 23 14 62 37 87 51 26 15 65 36 87 49 l40 22 3 1291 c2
1225 1 1291 -15 1291 -10 0 -51 -21 -91 -45z"/>
</g>
</svg>
